<?xml version="1.0" encoding="UTF-8"?>
<svg version="1.1" xmlns="http://www.w3.org/2000/svg" width="512" height="512">
<path d="M0 0 C13.14344387 9.7222509 21.93215181 21.52320282 25.37109375 37.75390625 C25.46582467 39.3763088 25.51009031 41.00203673 25.51826477 42.62718201 C25.52899773 44.09655464 25.52899773 44.09655464 25.53994751 45.59561157 C25.54263641 46.66419403 25.54532532 47.73277649 25.5480957 48.83374023 C25.5546669 49.96436386 25.5612381 51.09498749 25.56800842 52.25987244 C25.58773797 56.00658232 25.59940589 59.75325203 25.609375 63.5 C25.61345053 64.78194811 25.61752605 66.06389622 25.62172508 67.38469124 C25.64043776 73.47531112 25.65500031 79.56591097 25.66333705 85.65655369 C25.67308174 92.65833973 25.69932952 99.65980731 25.73983794 106.66148132 C25.77382268 112.74726151 25.78549754 118.83290961 25.78954124 124.91877937 C25.79439425 127.49539404 25.80597123 130.07200562 25.82457924 132.64855766 C25.96941274 154.03959736 24.23503535 170.13105197 8.97265625 186.36328125 C-5.09791377 199.29299424 -21.01640027 201.37691975 -39.27734375 201.14453125 C-41.02852729 201.13705064 -42.77971933 201.13136634 -44.53091431 201.12738037 C-49.09139005 201.11226696 -53.6513384 201.07311265 -58.21160889 201.02856445 C-62.88448965 200.98729921 -67.55745745 200.96930331 -72.23046875 200.94921875 C-81.3635102 200.90660108 -90.496164 200.8385282 -99.62890625 200.75390625 C-99.6200238 202.06855865 -99.61114136 203.38321106 -99.60198975 204.73770142 C-99.52090459 217.12677871 -99.46094097 229.51580217 -99.42165756 241.90508461 C-99.40078261 248.27456344 -99.37246595 254.64382805 -99.32714844 261.01318359 C-99.28368846 267.15992717 -99.25976845 273.3064647 -99.24939728 279.45335007 C-99.24200627 281.79851907 -99.22757345 284.1436768 -99.20598602 286.48875809 C-99.17695096 289.77351506 -99.17295042 293.05742051 -99.17480469 296.34228516 C-99.16042358 297.31189178 -99.14604248 298.28149841 -99.13122559 299.28048706 C-99.16569389 304.9230615 -99.69387567 308.38360701 -103.62890625 312.75390625 C-107.32385081 315.63714413 -110.06618163 316.1342108 -114.70092773 316.15795898 C-115.9024498 316.17064316 -117.10397186 316.18332733 -118.34190369 316.19639587 C-119.63157547 316.19346024 -120.92124725 316.1905246 -122.25 316.1875 C-123.59611778 316.19206515 -124.94223324 316.19737172 -126.28834534 316.2033844 C-129.10516853 316.21230275 -131.92170802 316.20990743 -134.73852539 316.19995117 C-138.33770104 316.18846552 -141.93589495 316.20867156 -145.53494167 316.23786831 C-148.3137681 316.25626801 -151.0923609 316.25593044 -153.87123299 316.25023079 C-155.83984167 316.25000405 -157.8084285 316.26686804 -159.77696228 316.28404236 C-171.09660432 316.19589487 -171.09660432 316.19589487 -175.62890625 311.75390625 C-178.42469307 307.87737686 -179.00498768 305.19934212 -179.00985718 300.44941711 C-179.01831665 299.17804398 -179.02677612 297.90667084 -179.03549194 296.59677124 C-179.02965937 295.19512811 -179.02351488 293.79348625 -179.01708984 292.3918457 C-179.02115685 290.90981154 -179.02649946 289.42778041 -179.03302002 287.945755 C-179.04669011 283.92477103 -179.04139472 279.90401816 -179.03188276 275.88303018 C-179.02427746 271.6676346 -179.03133485 267.45225856 -179.03604126 263.23686218 C-179.04149928 256.15274515 -179.03430914 249.06872193 -179.02001953 241.98461914 C-179.0037244 233.81228532 -179.00895843 225.64017641 -179.02549875 217.46784812 C-179.03915 210.44002884 -179.0410146 203.41227697 -179.03318274 196.38444871 C-179.02852211 192.19231531 -179.02783616 188.00028727 -179.03779221 183.80816078 C-179.04651156 179.86084644 -179.04035012 175.91381917 -179.02310944 171.96653557 C-179.01916959 170.52427266 -179.02023533 169.08198526 -179.02689743 167.63973236 C-179.08208056 154.47048495 -177.16823649 144.17692977 -168.31640625 134.12890625 C-166.98609375 132.95328125 -166.98609375 132.95328125 -165.62890625 131.75390625 C-164.81873047 131.01333984 -164.81873047 131.01333984 -163.9921875 130.2578125 C-154.63758979 122.3936748 -143.13726095 121.1486601 -131.328125 121.36328125 C-129.52454277 121.37177094 -129.52454277 121.37177094 -127.68452454 121.38043213 C-123.89472337 121.40258235 -120.10591513 121.45273907 -116.31640625 121.50390625 C-113.72592524 121.5239988 -111.13542921 121.5422447 -108.54492188 121.55859375 C-102.23925225 121.60237686 -95.93415022 121.66907134 -89.62890625 121.75390625 C-89.6377887 120.74294388 -89.64667114 119.73198151 -89.65582275 118.69038391 C-89.73727797 109.11428723 -89.79704772 99.5382618 -89.83615494 89.96189594 C-89.856937 85.03979752 -89.88508107 80.1179811 -89.93066406 75.19604492 C-89.97445919 70.43680783 -89.9981137 65.6778402 -90.00841522 60.91841698 C-90.01574666 59.1121211 -90.03006142 57.30583821 -90.05182648 55.49965858 C-90.26722823 36.86568314 -86.54235137 21.80874774 -73.62890625 7.75390625 C-54.47042616 -10.71683353 -22.59117628 -14.80111549 0 0 Z M-56.91015625 30.08203125 C-61.40206971 37.06491491 -63.22260663 43.11126501 -63.12719727 51.38525391 C-63.13271606 52.3019133 -63.13823486 53.21857269 -63.1439209 54.16300964 C-63.15318889 56.13702893 -63.15338946 58.11110802 -63.14532661 60.0851326 C-63.13262834 63.21333706 -63.14404813 66.34066807 -63.16136169 69.46884155 C-63.18798772 74.98003349 -63.19366002 80.49100901 -63.19226074 86.0022583 C-63.19002698 94.82926989 -63.20420873 103.65601447 -63.2478466 112.4829216 C-63.25766068 115.55790113 -63.24898202 118.63245737 -63.239151 121.70742798 C-63.24529655 123.59873733 -63.25220873 125.49004441 -63.26000977 127.38134766 C-63.2522905 128.23036148 -63.24457123 129.07937531 -63.23661804 129.95411682 C-63.28200636 135.30036726 -63.90387237 139.09793746 -66.62890625 143.75390625 C-70.87869319 147.4660728 -73.96168964 148.2512104 -79.53295898 148.23632812 C-80.5269017 148.24219688 -80.5269017 148.24219688 -81.54092407 148.2481842 C-82.96988924 148.25413077 -84.39891541 148.2510407 -85.82784843 148.23976135 C-88.09480278 148.22240899 -90.36049198 148.23005463 -92.62745667 148.24401855 C-98.25577641 148.27357802 -103.88384965 148.26049819 -109.51220703 148.24884033 C-114.27429552 148.24061504 -119.03582843 148.24866073 -123.79783821 148.27796936 C-126.02211394 148.28502809 -128.24539229 148.26843268 -130.46958923 148.25085449 C-140.28394196 148.17188213 -140.28394196 148.17188213 -148.62890625 152.75390625 C-151.24088022 156.392165 -152.00248629 158.87258014 -151.9896698 163.32844543 C-151.99379379 164.43757294 -151.99791779 165.54670044 -152.00216675 166.68943787 C-151.99138092 167.89640823 -151.98059509 169.1033786 -151.96948242 170.34692383 C-151.9699205 171.6253717 -151.97035858 172.90381958 -151.97080994 174.2210083 C-151.97166944 177.71866173 -151.95405126 181.21600548 -151.93308806 184.71358705 C-151.91431363 188.3717607 -151.91257022 192.02994173 -151.90901184 195.68815613 C-151.89969361 202.61187957 -151.8750829 209.53546062 -151.84496337 216.45912141 C-151.8114124 224.34298502 -151.79493161 232.22685548 -151.77987707 240.11077273 C-151.74853306 256.32524702 -151.69352386 272.53952523 -151.62890625 288.75390625 C-143.37890625 288.75390625 -135.12890625 288.75390625 -126.62890625 288.75390625 C-126.61956055 285.60456543 -126.61021484 282.45522461 -126.60058594 279.21044922 C-126.56681817 268.80480688 -126.5112702 258.39936292 -126.44500351 247.99387932 C-126.40549521 241.68503656 -126.37332299 235.3763341 -126.35791016 229.06738281 C-126.34276596 222.97882964 -126.30835942 216.89066205 -126.26059723 210.80228043 C-126.24576048 208.47950721 -126.23786393 206.15667894 -126.2370224 203.83385849 C-126.234658 200.58006432 -126.20761906 197.3273403 -126.17480469 194.07373047 C-126.17983505 193.11347458 -126.18486542 192.15321869 -126.19004822 191.16386414 C-126.10312721 185.59270893 -125.62644442 181.9828584 -121.62890625 177.75390625 C-116.27391058 174.6432832 -111.64787227 174.32775211 -105.6394043 174.38500977 C-104.76687012 174.38124329 -103.89433594 174.37747681 -102.99536133 174.37359619 C-101.11079161 174.36718732 -99.22618954 174.36747148 -97.34161949 174.3737812 C-94.35145525 174.38293238 -91.36191266 174.37262081 -88.3717804 174.35716248 C-79.87392082 174.3171792 -71.37611187 174.31585557 -62.87817383 174.31811523 C-57.66986393 174.31816652 -52.46188947 174.29890529 -47.25367165 174.26878166 C-44.32112525 174.25801624 -41.38923556 174.27005192 -38.45671082 174.28260803 C-28.20708829 174.26210048 -19.70243941 174.03840774 -11.04296875 167.9296875 C-1.93891464 158.44795429 -0.48416868 148.94806043 -0.46777344 136.15356445 C-0.46280853 135.21596786 -0.45784363 134.27837128 -0.45272827 133.31236267 C-0.43818598 130.22646333 -0.43131757 127.14061541 -0.42578125 124.0546875 C-0.42295387 122.9948937 -0.4201265 121.93509991 -0.41721344 120.84319115 C-0.40225207 115.23375578 -0.3930036 109.62434592 -0.38867188 104.01489258 C-0.38319476 98.24637058 -0.3591738 92.4780855 -0.33069992 86.70963764 C-0.31199363 82.25098508 -0.30686368 77.79238866 -0.305336 73.33370018 C-0.3023265 71.20842381 -0.29435616 69.08314802 -0.28115082 66.95791054 C0.26302406 45.75937892 0.26302406 45.75937892 -9.62890625 27.75390625 C-15.95760785 21.42520465 -23.12292333 18.57429893 -32.00390625 18.19140625 C-42.38793673 18.58279491 -50.16308434 22.21044735 -56.91015625 30.08203125 Z " fill="#000000" transform="translate(486.62890625,181.24609375)"/>
<path d="M0 0 C12.20432387 9.18733319 20.57979851 21.7370114 23 37 C23.08774911 39.73801503 23.12650659 42.44942603 23.11352539 45.18676758 C23.11367142 45.99704407 23.11381744 46.80732056 23.1139679 47.64215088 C23.11327347 50.30963862 23.10550312 52.97705577 23.09765625 55.64453125 C23.0957904 57.4982652 23.09436728 59.35199964 23.09336853 61.20573425 C23.08955651 66.07682667 23.07973746 70.94788912 23.06866455 75.81896973 C23.05842215 80.79272049 23.05386485 85.7664761 23.04882812 90.74023438 C23.038114 100.49350273 23.02105338 110.24674887 23 120 C23.64986877 119.99333817 24.29973755 119.98667633 24.96929932 119.97981262 C31.78351859 119.91301748 38.5976436 119.86801741 45.41210938 119.83520508 C47.94925723 119.82019523 50.48637948 119.79978103 53.0234375 119.77368164 C56.68756462 119.73695395 60.35134623 119.72019492 64.015625 119.70703125 C65.13487366 119.69154739 66.25412231 119.67606354 67.4072876 119.66011047 C80.71873176 119.65731818 90.91500977 122.54478668 100.8125 131.5625 C101.534375 132.366875 102.25625 133.17125 103 134 C103.680625 134.721875 104.36125 135.44375 105.0625 136.1875 C109.83366489 143.11338451 112.11505942 150.87479726 112.14717102 159.21115112 C112.15790398 161.12481979 112.15790398 161.12481979 112.16885376 163.07714844 C112.1716938 164.48876929 112.17440555 165.9003904 112.17700195 167.31201172 C112.1832692 168.80038613 112.18991624 170.28875898 112.19691467 171.77713013 C112.21792106 176.6613049 112.22831177 181.54547988 112.23828125 186.4296875 C112.24232966 188.11230612 112.24644661 189.79492459 112.25063133 191.47754288 C112.26967308 199.38085881 112.28390796 207.28416543 112.2922433 215.18749988 C112.30202149 224.30781087 112.32836031 233.42787954 112.36874419 242.54810512 C112.39889961 249.60045257 112.4137115 256.65273051 112.41702431 263.70514119 C112.41937486 267.91623707 112.42833617 272.12707375 112.45348549 276.33810043 C112.47676228 280.29936273 112.48100125 284.26019507 112.47072411 288.22150803 C112.47022858 289.67353241 112.47655396 291.12557795 112.49028015 292.57753754 C112.50799888 294.56324002 112.49850769 296.54912922 112.48774719 298.53488159 C112.49013555 299.64505583 112.4925239 300.75523006 112.49498463 301.89904594 C111.72867568 306.69977854 109.42625696 309.88706366 105.62950134 312.8497467 C102.54102746 314.20077369 100.29506716 314.38679996 96.92797852 314.40405273 C95.72645645 314.41673691 94.52493439 314.42942108 93.28700256 314.44248962 C91.99733078 314.43955399 90.707659 314.43661835 89.37890625 314.43359375 C88.03278847 314.4381589 86.68667301 314.44346547 85.34056091 314.44947815 C82.52373772 314.4583965 79.70719823 314.45600118 76.89038086 314.44604492 C73.29120521 314.43455927 69.6930113 314.45476531 66.09396458 314.48396206 C63.31513815 314.50236176 60.53654535 314.50202419 57.75767326 314.49632454 C55.78906458 314.4960978 53.82047775 314.51296179 51.85194397 314.53013611 C40.53230193 314.44198862 40.53230193 314.44198862 36 310 C32.14494116 305.25545707 32.59487808 300.52584757 32.65942383 294.7019043 C32.65876671 293.14999138 32.65876671 293.14999138 32.65809631 291.56672668 C32.6601837 288.15236437 32.68351302 284.73849513 32.70703125 281.32421875 C32.71262737 278.95482145 32.71689739 276.58542069 32.71989441 274.21601868 C32.73134187 267.98361608 32.76080852 261.75142364 32.79400635 255.519104 C32.82470916 249.15794721 32.83840022 242.79675642 32.85351562 236.43554688 C32.88567806 223.95693898 32.93687347 211.47848698 33 199 C31.55206306 199.00999275 31.55206306 199.00999275 30.07487488 199.02018738 C20.93961243 199.08122998 11.80439184 199.12608317 2.66897106 199.15543652 C-2.02668122 199.17103512 -6.72216771 199.19216624 -11.41772461 199.22631836 C-15.95649005 199.25912026 -20.49509688 199.27689658 -25.03397179 199.28463173 C-26.75817038 199.29013809 -28.48236114 199.30088981 -30.20649147 199.31719017 C-48.67615417 199.48472596 -63.74054387 195.95370279 -77.5234375 182.70703125 C-85.93855323 173.50880538 -92.08350825 161.64938326 -92.14717102 149.00646973 C-92.15432632 148.02551331 -92.16148163 147.04455688 -92.16885376 146.03387451 C-92.17154266 144.96888733 -92.17423157 143.90390015 -92.17700195 142.80664062 C-92.18357315 141.67587097 -92.19014435 140.54510132 -92.19691467 139.38006592 C-92.21661925 135.63879323 -92.22830578 131.89756069 -92.23828125 128.15625 C-92.24235678 126.87521896 -92.2464323 125.59418793 -92.25063133 124.27433777 C-92.26933475 118.18906068 -92.28390078 112.10380357 -92.2922433 106.01850367 C-92.30199199 99.0252177 -92.32825419 92.03225024 -92.36874419 85.03907633 C-92.40272726 78.95809949 -92.4144035 72.87725482 -92.41844749 66.79618835 C-92.42329996 64.22236475 -92.43487536 61.64854422 -92.45348549 59.07478333 C-92.59956461 37.52809574 -90.77064462 21.68533719 -75.48828125 5.32421875 C-54.63529412 -14.15384615 -23.42099771 -15.15303243 0 0 Z M-59 28 C-65.64180438 36.56443196 -66.15080044 45.9839997 -66.14526367 56.43261719 C-66.14862228 57.35231293 -66.1519809 58.27200867 -66.15544128 59.21957397 C-66.16490207 62.24535491 -66.16689203 65.27108021 -66.16796875 68.296875 C-66.17118502 70.41286237 -66.17454936 72.52884952 -66.17805481 74.64483643 C-66.18403412 79.07638057 -66.18589597 83.50790524 -66.18530273 87.93945312 C-66.18520125 93.5959216 -66.19884464 99.25226417 -66.21607494 104.90870285 C-66.22723756 109.27895675 -66.22922062 113.64918063 -66.22869301 118.01944733 C-66.22986704 120.10367516 -66.23425615 122.18790393 -66.24202538 124.27211761 C-66.94553479 145.70471193 -66.94553479 145.70471193 -57.17578125 163.94140625 C-50.14001135 170.56249423 -43.17449979 172.4553123 -33.74169922 172.38476562 C-32.85284027 172.3901384 -31.96398132 172.39551117 -31.04818726 172.40104675 C-29.13198892 172.41077748 -27.21574676 172.41378324 -25.29952621 172.41069031 C-22.26417941 172.40618994 -19.2294087 172.42027374 -16.19412231 172.43908691 C-8.66057166 172.48198215 -1.12703514 172.49311968 6.40661621 172.50531006 C12.78503586 172.51684578 19.16319098 172.54041935 25.54150009 172.58000183 C28.52730231 172.59355477 31.51274487 172.58940535 34.49856567 172.58459473 C36.33254452 172.59393596 38.16651941 172.60410494 40.00048828 172.61523438 C40.82661621 172.60908615 41.65274414 172.60293793 42.50390625 172.59660339 C47.38087685 172.64850368 50.86170185 173.14987726 55 176 C59.67736557 181.0802461 59.58021162 185.76971527 59.54589844 192.31982422 C59.55623611 193.34482529 59.56657379 194.36982635 59.57722473 195.42588806 C59.60664181 198.80231511 59.60815172 202.1781424 59.609375 205.5546875 C59.62435732 207.90024966 59.64108457 210.24580127 59.65948486 212.59133911 C59.70316438 218.75623053 59.72315901 224.92097963 59.73822021 231.08599854 C59.75778894 237.38033465 59.79975931 243.67451702 59.83984375 249.96875 C59.91515274 262.31247861 59.96336933 274.65609594 60 287 C68.25 287 76.5 287 85 287 C85.09032728 270.02333474 85.16399754 253.04687484 85.20724869 236.07003593 C85.22786557 228.18722805 85.25596929 220.30458018 85.30175781 212.421875 C85.34165255 205.5505316 85.36743917 198.6793041 85.37635398 191.8078481 C85.38156433 188.17010151 85.39379182 184.53268646 85.42292023 180.89504623 C85.45519005 176.83206282 85.45595773 172.76965415 85.45410156 168.70654297 C85.47567322 166.90148033 85.47567322 166.90148033 85.49768066 165.05995178 C85.46735322 158.93505709 85.44504845 154.65760261 81 150 C77.08752286 146.87532695 74.03749987 146.62719444 69.10180664 146.63110352 C68.09104317 146.6254538 68.09104317 146.6254538 67.05986023 146.61968994 C65.6035965 146.61327765 64.14729088 146.61356853 62.69102669 146.61987495 C60.38255631 146.62901553 58.07489295 146.61872848 55.76646423 146.60325623 C49.20605668 146.56323754 42.64571443 146.5619528 36.08520508 146.56420898 C32.06572184 146.56426018 28.0466749 146.54504726 24.02731133 146.51487541 C21.75929602 146.50408064 19.49212419 146.51616128 17.22413635 146.52870178 C15.8252785 146.51979357 14.42642744 146.50971786 13.02758789 146.49829102 C11.8124501 146.49845718 10.59731232 146.49862335 9.34535217 146.49879456 C5.19267947 145.8796279 3.15641845 144.76372159 0 142 C-3.18294547 136.56235791 -3.41693506 131.87645121 -3.3371582 125.67504883 C-3.3377121 124.76671295 -3.33826599 123.85837708 -3.33883667 122.92251587 C-3.33857772 120.95935281 -3.33174008 118.99618177 -3.31899452 117.03306007 C-3.30054028 113.91633479 -3.30331044 110.80027834 -3.3120575 107.68351746 C-3.33380795 98.82528293 -3.32305489 89.9673063 -3.28491211 81.10913086 C-3.26302058 75.68027623 -3.27044479 70.25207946 -3.2953701 64.82324791 C-3.29894421 62.76495929 -3.29140656 60.70661787 -3.27211952 58.64841652 C-3.15652718 46.06574014 -3.12897138 35.67060855 -11.97602844 25.79402161 C-18.59093616 19.33201716 -25.31908232 16.78432412 -34.5 16.5 C-45.0627479 16.82711807 -51.73525316 20.43873288 -59 28 Z " fill="#000000" transform="translate(92,183)"/>
<path d="M0 0 C1.27284479 -0.00679667 1.27284479 -0.00679667 2.57140362 -0.01373065 C5.41949386 -0.02640762 8.26739368 -0.02475215 11.11550903 -0.02310181 C13.15560147 -0.02908498 15.19569163 -0.03589004 17.23577881 -0.04345703 C22.78123457 -0.06114531 28.32662864 -0.06581359 33.87210989 -0.0670886 C38.4994329 -0.06898644 43.12674149 -0.07634261 47.75405896 -0.08343279 C58.67012264 -0.09972496 69.58615334 -0.10460097 80.50222778 -0.10317993 C91.76758622 -0.10197815 103.03275318 -0.1230855 114.29806316 -0.15466726 C123.96610729 -0.1808066 133.6340888 -0.19154822 143.30216801 -0.19026911 C149.07818079 -0.18975881 154.85402344 -0.19547993 160.63000107 -0.21662521 C166.06207437 -0.23596816 171.49381455 -0.23615897 176.92589951 -0.22159195 C178.91973354 -0.21949788 180.9135882 -0.22424019 182.90738678 -0.23631287 C185.62924343 -0.25172673 188.34994592 -0.24248289 191.07177734 -0.22705078 C191.86088906 -0.23733791 192.65000078 -0.24762503 193.46302497 -0.25822389 C198.63265326 -0.1934467 201.55368116 0.8691695 205.66287231 4.26742554 C208.79577391 8.61306323 209.03009862 12.0248989 208.24490356 17.15023804 C207.0244844 21.58961512 204.37197667 23.7946893 200.66287231 26.26742554 C196.21082406 27.5452228 191.70156931 27.40170651 187.10891724 27.38095093 C186.25962646 27.38109695 185.41033569 27.38124298 184.53530884 27.38139343 C181.73795995 27.38069873 178.94067827 27.37292703 176.14334106 27.36508179 C174.19992611 27.36321604 172.25651069 27.36179287 170.31309509 27.36079407 C165.2052683 27.35698125 160.09747007 27.34716151 154.98965454 27.33609009 C149.77461127 27.3258494 144.55956337 27.32129075 139.34451294 27.31625366 C129.11728687 27.30553813 118.89008197 27.28847654 108.66287231 27.26742554 C108.66840307 28.37417916 108.67393383 29.48093279 108.67963219 30.6212244 C108.81280218 57.54522687 108.91141373 84.46918664 108.97374535 111.39344883 C109.00468932 124.41381596 109.04688069 137.43396559 109.11550903 150.45419312 C109.17529386 161.80202613 109.21401751 173.14970163 109.22740328 184.49768776 C109.23522847 190.50698877 109.25363157 196.51583915 109.29725266 202.5249958 C109.33797861 208.18115171 109.35054109 213.83667137 109.3415184 219.49295998 C109.34316902 221.56864123 109.35510366 223.64434376 109.37810516 225.71989822 C109.4079919 228.55586194 109.40077164 231.38942861 109.38439941 234.22544861 C109.40187646 235.04550355 109.41935351 235.86555849 109.43736017 236.71046358 C109.35186896 242.19469768 107.91311109 244.97894203 104.14531863 248.95640129 C100.84985338 251.87079678 97.51376256 251.71161419 93.28005981 251.69320679 C88.98599661 250.99462039 86.41288062 248.51361272 83.66287231 245.26742554 C82.03212394 242.00592878 82.53011106 238.41028956 82.5426178 234.82672119 C82.54176337 233.94296503 82.54090895 233.05920887 82.54002863 232.14867222 C82.53837376 229.16984449 82.54389534 226.19107235 82.54934692 223.21224976 C82.54962882 221.08390301 82.54947101 218.95555616 82.54890442 216.82720947 C82.54861654 211.03411577 82.55451175 205.24104261 82.56147838 199.4479537 C82.56771348 193.39942624 82.56831584 187.35089835 82.56950378 181.30236816 C82.57261663 169.84182319 82.5808294 158.38128771 82.59085327 146.92074692 C82.60201584 133.87620997 82.60752522 120.83167257 82.61254871 107.78713202 C82.62301205 80.94722459 82.6406106 54.10732559 82.66287231 27.26742554 C81.04794388 27.27408737 81.04794388 27.27408737 79.40039062 27.28088379 C69.24813285 27.321449 59.09589156 27.35141916 48.94357109 27.37104988 C43.72431939 27.38148153 38.50513319 27.39562953 33.28591919 27.41830444 C28.24792971 27.44005475 23.21000318 27.45199882 18.17197037 27.45718002 C16.25106948 27.46087184 14.33017199 27.46808102 12.40929794 27.47888565 C9.71624081 27.49342956 7.02344295 27.49540226 4.33035278 27.49447632 C3.53841019 27.50166687 2.74646759 27.50885742 1.93052673 27.51626587 C-3.95395502 27.49441145 -8.48200094 26.86958046 -13.08712769 22.89242554 C-15.54889895 20.02035906 -17.24817441 17.92492161 -17.45431519 14.08383179 C-16.91166715 9.03370408 -16.18302322 5.89355561 -12.33712769 2.26742554 C-8.53509724 -0.34984489 -4.43822805 -0.01732178 0 0 Z " fill="#000000" transform="translate(160.33712768554688,245.73257446289063)"/>
<path d="M0 0 C11.29908547 9.56314916 18.72855547 22.316623 20.91015625 37.03515625 C20.99265625 38.29328125 21.07515625 39.55140625 21.16015625 40.84765625 C21.21171875 41.50636719 21.26328125 42.16507813 21.31640625 42.84375 C21.9643875 57.55832421 16.39964013 72.10057299 6.91015625 83.22265625 C-4.09359199 94.54239051 -17.37370749 101.76946073 -33.32446289 102.14013672 C-51.00213532 102.28441552 -64.4790608 97.51767156 -77.51953125 85.25390625 C-90.22688189 72.07591299 -93.3508401 56.97130055 -93.1171875 39.359375 C-92.90009409 32.9513392 -91.64465781 27.62227344 -88.83984375 21.84765625 C-88.39253906 20.89761719 -87.94523437 19.94757813 -87.484375 18.96875 C-80.68372239 5.56800022 -69.49565737 -4.42662435 -55.21875 -9.4453125 C-35.88981521 -15.19003696 -16.19759358 -12.27630545 0 0 Z M-57.83984375 23.84765625 C-64.97588178 32.83906417 -66.84840363 40.38326671 -65.83984375 51.84765625 C-63.95965398 59.43596708 -58.95770841 66.08642587 -52.4921875 70.421875 C-44.31989406 75.05948542 -36.27010483 76.45960181 -26.97265625 74.12890625 C-17.54225567 70.57459114 -12.18124597 64.82615992 -7.83984375 55.84765625 C-5.1761325 48.69577399 -5.19183085 41.41559243 -7.78125 34.23828125 C-11.74157874 25.6118226 -16.92857908 20.16842157 -25.7265625 16.57421875 C-37.20775877 12.62689434 -49.18734286 15.25085815 -57.83984375 23.84765625 Z " fill="#000000" transform="translate(92.83984375,56.15234375)"/>
<path d="M0 0 C0.66386719 0.46148437 1.32773437 0.92296875 2.01171875 1.3984375 C12.52533202 9.57306714 19.68789223 23.01892263 22 36 C23.61446673 53.50787601 20.99179356 68.54020936 9.96484375 82.59375 C0.83778385 93.28222932 -10.84459571 100.95119148 -25 103 C-43.62364717 104.3284229 -58.69023669 101.11082451 -73.1875 88.75 C-84.68169581 77.95842744 -90.91331242 64.41018721 -92.18359375 48.734375 C-92.70255972 31.76113519 -86.29240565 17.189356 -74.9765625 4.78125 C-54.43690397 -15.07120806 -22.8831939 -15.95847931 0 0 Z M-59.53125 28.9140625 C-64.28289539 35.84814967 -65.70375738 43.15000309 -64.60546875 51.4453125 C-62.94311799 58.45936022 -59.4940755 64.33003582 -54 69 C-52.8553125 70.051875 -52.8553125 70.051875 -51.6875 71.125 C-44.25246937 76.31223067 -36.87374672 76.95932397 -28 76 C-19.86736799 73.91088352 -13.68090995 68.45696283 -8.625 61.9375 C-4.53048062 54.53586881 -4.01062037 47.31255568 -5 39 C-7.80762709 30.19519887 -12.78013947 23.45690595 -20.890625 18.94921875 C-35.2413542 12.36660166 -49.87301916 16.84127396 -59.53125 28.9140625 Z " fill="#000000" transform="translate(490,55)"/>
<path d="M0 0 C12.90726227 9.71650051 21.32506945 23.16128342 23.71875 39.2265625 C25.36903769 55.50023274 21.76685854 70.66742876 11.82421875 83.89453125 C6.61316498 89.89759319 0.96692188 94.58559211 -5.8046875 98.70703125 C-12.53763122 102.80573306 -17.06451727 105.98109239 -19.1875 113.875 C-20.20384659 118.93089364 -20.3202305 124.09309307 -20.30737305 129.23974609 C-20.46618084 134.89441314 -22.17584571 137.13516322 -26 141 C-29.03951744 143.30584081 -32.19421939 143.41881923 -35.97265625 143.3203125 C-40.10814439 142.66692131 -42.88713844 140.21204383 -45.64086914 137.21289062 C-48.32388675 132.84449263 -47.46816274 127.48408975 -47.4375 122.5 C-47.4674707 120.81777344 -47.4674707 120.81777344 -47.49804688 119.1015625 C-47.48997635 105.12341245 -42.84959771 94.14219541 -33.4375 83.9375 C-29.13511083 79.77630893 -24.19645495 76.842017 -19.05078125 73.859375 C-13.8703019 70.70200219 -10.59882881 67.96777783 -7.75 62.5625 C-6.99976563 61.17224609 -6.99976563 61.17224609 -6.234375 59.75390625 C-2.97078261 52.47279032 -3.12858688 44.9368648 -5.5625 37.4375 C-9.21476488 28.30683779 -15.13100732 23.00479708 -24 19 C-31.70111154 16.43296282 -40.42132427 17.28365676 -47.71875 20.68359375 C-55.32774274 25.07439949 -60.18141227 30.6254307 -63 39 C-63.61070936 42.34905136 -64.05534789 45.69371027 -64.484375 49.0703125 C-65.36583091 54.0785847 -67.32649324 56.56556564 -71.1875 59.875 C-75.20465866 61.48186346 -78.73347745 61.66970107 -83 61 C-88.01923269 58.58333241 -89.94657598 56.10353923 -92 51 C-93.08431322 35.41299753 -87.73593357 21.09083447 -78 9 C-57.28660411 -13.13417034 -25.10723309 -16.24400131 0 0 Z " fill="#000000" transform="translate(290,25)"/>
<path d="M0 0 C3.85333416 3.2260472 5.50379291 4.80789931 6.15625 9.9296875 C6.1826815 11.32791399 6.19263199 12.72653312 6.1875 14.125 C6.21585937 14.81980469 6.24421875 15.51460937 6.2734375 16.23046875 C6.28830125 20.17679338 5.73336523 22.66799171 3.26953125 25.671875 C-0.44277121 29.37856127 -1.93205782 30.11640882 -7.1875 30.625 C-12.28826798 30.49201908 -15.40947071 28.1666548 -18.94921875 24.6015625 C-20.87929937 21.27231169 -20.82623871 18.11879746 -20.8125 14.375 C-20.85503906 13.33279297 -20.85503906 13.33279297 -20.8984375 12.26953125 C-20.91330125 8.32320662 -20.35836523 5.83200829 -17.89453125 2.828125 C-12.56424578 -2.49409649 -6.7578901 -3.57020609 0 0 Z " fill="#000000" transform="translate(263.3125,184.75)"/>
</svg>
